<?xml version="1.0" standalone="no"?>
<!DOCTYPE svg PUBLIC "-//W3C//DTD SVG 20010904//EN"
 "http://www.w3.org/TR/2001/REC-SVG-20010904/DTD/svg10.dtd">
<svg version="1.0" xmlns="http://www.w3.org/2000/svg"
 width="300.000000pt" height="300.000000pt" viewBox="0 0 300.000000 300.000000"
 preserveAspectRatio="xMidYMid meet">
<metadata>
Created by potrace 1.10, written by Peter Selinger 2001-2011
</metadata>
<g transform="translate(0.000000,300.000000) scale(0.100000,-0.100000)"
fill="#000000" stroke="none">
<path d="M832 2485 c-215 -47 -403 -231 -452 -443 -7 -28 -12 -92 -12 -140 1
-157 33 -285 115 -449 l51 -103 225 0 226 0 54 173 c30 94 59 178 64 185 5 6
23 12 38 12 36 0 33 6 89 -210 23 -91 44 -172 47 -180 2 -8 26 71 53 175 101
394 120 460 137 473 22 16 27 15 50 -5 20 -18 31 -64 164 -698 15 -71 30 -123
33 -115 3 8 31 87 62 175 81 232 78 225 114 225 28 0 33 -6 82 -105 l53 -105
220 0 221 0 52 103 c62 125 97 242 111 368 23 209 -37 380 -181 514 -194 180
-470 214 -710 88 -79 -41 -196 -150 -217 -202 -17 -39 -25 -39 -42 0 -7 18
-42 62 -79 98 -147 147 -363 210 -568 166z m223 -30 c116 -17 265 -88 298
-142 5 -7 12 -11 18 -8 5 4 9 0 9 -7 1 -7 25 -39 54 -72 63 -69 76 -69 133 1
112 137 203 193 363 225 71 15 203 8 268 -13 252 -81 408 -298 401 -558 -4
-146 -96 -429 -157 -481 -15 -13 -48 -14 -207 -10 l-189 5 -41 77 c-53 99 -70
118 -109 118 -59 -1 -83 -33 -131 -178 -18 -51 -35 -94 -40 -95 -8 -2 -28 54
-39 108 -3 11 -14 63 -25 115 -12 52 -32 149 -46 215 -46 221 -49 230 -101
251 -32 14 -37 13 -64 -6 -22 -15 -34 -38 -49 -88 -24 -80 -60 -210 -66 -237
-2 -11 -12 -52 -23 -92 -11 -40 -17 -75 -13 -79 3 -4 0 -4 -6 0 -8 4 -13 2
-13 -6 -1 -17 -29 59 -35 97 -21 112 -51 155 -109 155 -28 0 -40 -7 -59 -32
-20 -29 -81 -194 -93 -253 -9 -45 -27 -74 -51 -80 -14 -3 -100 -5 -191 -4
-145 1 -167 4 -183 20 -26 26 -87 149 -111 228 -28 86 -27 80 -39 191 -21 190
21 330 137 458 95 106 225 170 369 181 44 4 85 5 90 4 6 -1 28 -5 50 -8z"/>
<path d="M1406 1432 c-44 -169 -84 -313 -89 -320 -6 -7 -24 -12 -41 -10 l-31
3 -47 175 c-65 239 -64 238 -71 220 -2 -8 -20 -64 -39 -125 l-34 -110 -228 -5
-228 -5 97 -113 c102 -119 229 -238 380 -355 86 -67 412 -287 425 -287 4 0 87
54 186 119 284 188 478 354 629 534 l85 102 -218 5 -217 5 -34 68 -34 68 -82
-227 c-65 -182 -85 -229 -103 -235 -48 -18 -56 3 -136 386 -42 198 -80 372
-84 387 -5 22 -24 -39 -86 -280z m93 66 c13 -51 39 -166 46 -207 3 -16 14 -67
24 -113 11 -46 23 -104 27 -131 3 -26 10 -50 15 -53 5 -3 9 -14 9 -24 0 -10
14 -30 32 -45 57 -48 106 -13 151 109 14 39 40 110 58 159 18 48 37 87 43 87
5 0 23 -12 39 -27 l28 -28 166 -2 c91 -1 168 -4 171 -7 13 -14 -168 -207 -282
-301 -47 -39 -71 -59 -111 -93 -28 -24 -239 -170 -305 -212 -30 -19 -57 -37
-60 -41 -3 -3 -18 -9 -34 -13 -24 -6 -45 4 -140 64 -148 95 -224 149 -341 245
-147 119 -345 318 -345 346 0 5 72 9 168 9 112 0 175 4 192 13 14 6 37 36 52
66 15 30 29 56 31 58 2 2 14 -34 26 -79 38 -141 43 -155 66 -184 42 -52 117
-27 142 48 6 18 21 76 33 128 12 52 26 104 30 115 4 11 16 50 25 88 10 37 21
67 25 67 4 0 12 -19 19 -42z"/>
</g>
</svg>
